<svg width="32" height="32" fill="none" xmlns="http://www.w3.org/2000/svg"><path fill-rule="evenodd" clip-rule="evenodd" d="M9.468.495c1.645-.076 2.17-.093 6.359-.093 4.19 0 4.714.019 6.358.093 1.643.074 2.765.336 3.747.716a7.59 7.59 0 0 1 2.731 1.781c.785.77 1.391 1.701 1.778 2.73.382.982.642 2.104.718 3.744.076 1.648.093 2.173.093 6.361 0 4.19-.018 4.714-.093 6.36-.074 1.64-.336 2.762-.718 3.743a7.567 7.567 0 0 1-1.778 2.733 7.564 7.564 0 0 1-2.731 1.778c-.982.382-2.104.643-3.744.718-1.647.076-2.171.093-6.361.093-4.19 0-4.714-.018-6.36-.093-1.64-.074-2.762-.336-3.743-.718a7.567 7.567 0 0 1-2.733-1.778 7.56 7.56 0 0 1-1.78-2.731c-.38-.982-.64-2.104-.716-3.744-.076-1.648-.093-2.172-.093-6.36 0-4.19.018-4.715.093-6.359.074-1.643.336-2.765.716-3.747a7.567 7.567 0 0 1 1.781-2.731 7.561 7.561 0 0 1 2.73-1.78c.982-.38 2.104-.64 3.744-.716h.002zM22.06 3.27c-1.627-.074-2.115-.09-6.233-.09-4.118 0-4.606.016-6.233.09-1.505.07-2.32.32-2.865.532a4.79 4.79 0 0 0-1.774 1.152A4.784 4.784 0 0 0 3.803 6.73c-.212.544-.463 1.36-.532 2.865-.074 1.627-.09 2.115-.09 6.233 0 4.118.016 4.606.09 6.233.069 1.505.32 2.32.532 2.865.247.669.64 1.276 1.152 1.774A4.787 4.787 0 0 0 6.73 27.85c.544.212 1.36.463 2.865.532 1.627.074 2.113.09 6.233.09 4.12 0 4.606-.016 6.233-.09 1.505-.069 2.32-.32 2.865-.532a4.79 4.79 0 0 0 1.774-1.152 4.789 4.789 0 0 0 1.152-1.774c.212-.544.463-1.36.532-2.865.074-1.627.09-2.114.09-6.233 0-4.118-.016-4.606-.09-6.233-.069-1.505-.32-2.32-.532-2.865A4.79 4.79 0 0 0 26.7 4.955a4.786 4.786 0 0 0-1.774-1.152c-.544-.212-1.36-.463-2.865-.532zm-8.203 17.311a5.145 5.145 0 1 0 3.704-9.6 5.146 5.146 0 0 0-3.704 9.6zM10.22 10.221a7.928 7.928 0 1 1 11.212 11.212A7.928 7.928 0 0 1 10.22 10.22zm15.293-1.142a1.875 1.875 0 1 0-2.574-2.727 1.875 1.875 0 0 0 2.574 2.727z" fill="#F8F8F8"/></svg>