<svg xmlns="http://www.w3.org/2000/svg">
    <symbol viewBox="0 0 60 45" id="src-1">
        <path d="M53.9305 42.9545C53.9305 43.497 53.7174 44.0173 53.3379 44.4009C52.9585 44.7845 52.4439 45 51.9074 45H15.4904C14.9539 45 14.4393 44.7845 14.0598 44.4009C13.6804 44.0173 13.4673 43.497 13.4673 42.9545C13.4673 42.4121 13.6804 41.8918 14.0598 41.5082C14.4393 41.1246 14.9539 40.9091 15.4904 40.9091H51.9074C52.4439 40.9091 52.9585 41.1246 53.3379 41.5082C53.7174 41.8918 53.9305 42.4121 53.9305 42.9545ZM60 22.5V28.6364C60 29.1789 59.7868 29.6991 59.4074 30.0827C59.028 30.4663 58.5134 30.6818 57.9768 30.6818H13.4167C11.24 30.6894 9.11942 29.9834 7.37311 28.6696C5.6268 27.3558 4.34881 25.5051 3.7308 23.3949L0.164977 11.4034C-0.0121092 10.7898 -0.0471935 10.1431 0.0624379 9.51357C0.172069 8.88401 0.423478 8.28837 0.797215 7.77275C1.17939 7.26416 1.67273 6.85181 2.23866 6.56794C2.8046 6.28407 3.4278 6.13637 4.05956 6.13639H8.40936C8.70472 6.13701 8.99627 6.20383 9.26302 6.33204C9.52977 6.46025 9.76509 6.64667 9.95202 6.87786L14.403 12.2727H18.7528L16.4767 5.39491C16.2718 4.77893 16.215 4.12246 16.3111 3.47987C16.4071 2.83728 16.6531 2.22707 17.0288 1.69976C17.4046 1.17246 17.8991 0.743236 18.4716 0.447651C19.0441 0.152067 19.6779 -0.00137704 20.3207 2.79722e-05H24.5947C24.8756 -0.00146688 25.1537 0.0569681 25.4108 0.171517C25.6679 0.286065 25.8983 0.454151 26.0867 0.6648L36.6072 12.2727H49.8842C52.5671 12.2727 55.1401 13.3503 57.0372 15.2682C58.9342 17.1862 60 19.7876 60 22.5ZM55.9537 22.5C55.947 20.8746 55.3054 19.3177 54.1686 18.1684C53.0318 17.0191 51.4919 16.3704 49.8842 16.3637H35.7221C35.4411 16.3651 35.163 16.3067 34.9059 16.1922C34.6488 16.0776 34.4185 15.9095 34.23 15.6989L23.7095 4.09093H20.3207L23.4819 13.679C23.5809 13.9865 23.6073 14.3132 23.559 14.6328C23.5107 14.9525 23.389 15.2563 23.2037 15.5199C23.0169 15.7837 22.77 15.9981 22.4838 16.1449C22.1977 16.2918 21.8808 16.3668 21.5599 16.3637H13.4673C13.1719 16.363 12.8804 16.2962 12.6136 16.168C12.3469 16.0398 12.1115 15.8534 11.9246 15.6222L7.47365 10.2273H4.03428L7.6001 22.2188C7.97187 23.4853 8.73962 24.5959 9.78826 25.3841C10.8369 26.1723 12.11 26.5958 13.4167 26.5909H55.9537V22.5Z" fill="white"/>
    </symbol>
    <symbol viewBox="0 0 35.502666 22.751999" id="src-2">
        <path fill-rule="evenodd" clip-rule="evenodd" d="M0.5 11.5001C0.5 11.1686 0.631696 10.8507 0.866116 10.6162C1.10054 10.3818 1.41848 10.2501 1.75 10.2501H31.2325L23.365 2.38511C23.1303 2.1504 22.9984 1.83205 22.9984 1.50011C22.9984 1.16817 23.1303 0.849831 23.365 0.615114C23.5997 0.380397 23.9181 0.248535 24.25 0.248535C24.5819 0.248535 24.9003 0.380397 25.135 0.615114L35.135 10.6151C35.2514 10.7312 35.3438 10.8692 35.4068 11.021C35.4698 11.1729 35.5022 11.3357 35.5022 11.5001C35.5022 11.6645 35.4698 11.8273 35.4068 11.9792C35.3438 12.1311 35.2514 12.269 35.135 12.3851L25.135 22.3851C24.9003 22.6198 24.5819 22.7517 24.25 22.7517C23.9181 22.7517 23.5997 22.6198 23.365 22.3851C23.1303 22.1504 22.9984 21.8321 22.9984 21.5001C22.9984 21.1682 23.1303 20.8498 23.365 20.6151L31.2325 12.7501H1.75C1.41848 12.7501 1.10054 12.6184 0.866116 12.384C0.631696 12.1496 0.5 11.8316 0.5 11.5001Z" fill="white"/>
    </symbol>
    <symbol viewBox="0 0 52 52" id="src-3">
        <path d="M13.7222 28.8889C14.6799 28.8889 15.5984 28.5084 16.2757 27.8312C16.9529 27.154 17.3333 26.2355 17.3333 25.2778C17.3333 24.3201 16.9529 23.4016 16.2757 22.7243C15.5984 22.0471 14.6799 21.6667 13.7222 21.6667C12.7645 21.6667 11.846 22.0471 11.1688 22.7243C10.4916 23.4016 10.1111 24.3201 10.1111 25.2778C10.1111 26.2355 10.4916 27.154 11.1688 27.8312C11.846 28.5084 12.7645 28.8889 13.7222 28.8889ZM29.6111 25.2778C29.6111 26.2355 29.2307 27.154 28.5534 27.8312C27.8762 28.5084 26.9577 28.8889 26 28.8889C25.0423 28.8889 24.1238 28.5084 23.4466 27.8312C22.7693 27.154 22.3889 26.2355 22.3889 25.2778C22.3889 24.3201 22.7693 23.4016 23.4466 22.7243C24.1238 22.0471 25.0423 21.6667 26 21.6667C26.9577 21.6667 27.8762 22.0471 28.5534 22.7243C29.2307 23.4016 29.6111 24.3201 29.6111 25.2778ZM38.2778 28.8889C39.2355 28.8889 40.154 28.5084 40.8312 27.8312C41.5084 27.154 41.8889 26.2355 41.8889 25.2778C41.8889 24.3201 41.5084 23.4016 40.8312 22.7243C40.154 22.0471 39.2355 21.6667 38.2778 21.6667C37.32 21.6667 36.4016 22.0471 35.7243 22.7243C35.0471 23.4016 34.6667 24.3201 34.6667 25.2778C34.6667 26.2355 35.0471 27.154 35.7243 27.8312C36.4016 28.5084 37.32 28.8889 38.2778 28.8889ZM17.3333 36.8333C17.3333 37.7911 16.9529 38.7096 16.2757 39.3868C15.5984 40.064 14.6799 40.4444 13.7222 40.4444C12.7645 40.4444 11.846 40.064 11.1688 39.3868C10.4916 38.7096 10.1111 37.7911 10.1111 36.8333C10.1111 35.8756 10.4916 34.9571 11.1688 34.2799C11.846 33.6027 12.7645 33.2222 13.7222 33.2222C14.6799 33.2222 15.5984 33.6027 16.2757 34.2799C16.9529 34.9571 17.3333 35.8756 17.3333 36.8333ZM26 40.4444C26.9577 40.4444 27.8762 40.064 28.5534 39.3868C29.2307 38.7096 29.6111 37.7911 29.6111 36.8333C29.6111 35.8756 29.2307 34.9571 28.5534 34.2799C27.8762 33.6027 26.9577 33.2222 26 33.2222C25.0423 33.2222 24.1238 33.6027 23.4466 34.2799C22.7693 34.9571 22.3889 35.8756 22.3889 36.8333C22.3889 37.7911 22.7693 38.7096 23.4466 39.3868C24.1238 40.064 25.0423 40.4444 26 40.4444ZM0 9.02778C0 6.63346 0.951138 4.33721 2.64417 2.64417C4.33721 0.951138 6.63346 0 9.02778 0H42.9722C45.3665 0 47.6628 0.951138 49.3558 2.64417C51.0489 4.33721 52 6.63346 52 9.02778V42.9722C52 45.3665 51.0489 47.6628 49.3558 49.3558C47.6628 51.0489 45.3665 52 42.9722 52H9.02778C6.63346 52 4.33721 51.0489 2.64417 49.3558C0.951138 47.6628 0 45.3665 0 42.9722V9.02778ZM9.02778 3.61111C7.59119 3.61111 6.21344 4.18179 5.19762 5.19762C4.18179 6.21344 3.61111 7.59119 3.61111 9.02778V11.5556H48.3889V9.02778C48.3889 7.59119 47.8182 6.21344 46.8024 5.19762C45.7866 4.18179 44.4088 3.61111 42.9722 3.61111H9.02778ZM3.61111 42.9722C3.61111 44.4088 4.18179 45.7866 5.19762 46.8024C6.21344 47.8182 7.59119 48.3889 9.02778 48.3889H42.9722C44.4088 48.3889 45.7866 47.8182 46.8024 46.8024C47.8182 45.7866 48.3889 44.4088 48.3889 42.9722V15.1667H3.61111V42.9722Z" fill="white"/>
    </symbol>
    <symbol viewBox="0 0 439.80896 433.39206" id="src-4">
        <path d="M409 115a218 218 0 0 0-300-80 218 218 0 0 0-67 319c28 38 64 64 108 79 5 1 9 0 11-2 3-3 4-5 4-9a6590 6590 0 0 0 0-41l-7 2-16 1-20-2c-6-2-13-5-19-9-6-5-10-10-12-18l-3-6-9-15c-4-5-8-9-12-11l-2-1a21 21 0 0 1-7-7c0-2 0-3 2-4l8-1 6 1 14 7c5 4 10 8 14 15s9 13 15 17c7 4 13 7 19 7l16-2 13-4c2-13 7-23 14-30-11-1-20-2-29-5-9-2-18-6-27-11a77 77 0 0 1-38-49c-4-12-6-27-6-43 0-23 8-42 23-59-7-17-6-36 2-58 5-2 14 0 24 4a172 172 0 0 1 36 19 202 202 0 0 1 110 0l11-7c7-5 16-9 26-13s18-5 23-3c9 22 10 41 3 58 15 17 22 36 22 59 0 16-2 31-6 43-4 13-9 23-15 30-6 8-14 14-23 19s-18 9-27 11c-8 3-18 4-29 5 10 9 15 22 15 41v60c0 4 1 6 3 9 3 2 7 3 12 2 44-15 80-41 108-79 28-39 42-82 42-129 0-40-10-77-30-110z"/>
    </symbol>
    <symbol viewBox="0 0 30 30" id="src-5">
        <path d="M2.59123 7.8325C2.83304 7.525 3.15151 7.10875 3.40654 6.81125C4.17032 5.99125 4.26942 5.88375 4.96449 5.2775C5.17063 5.1175 5.41509 4.925 5.65426 4.74375C3.89018 6.15625 3.66554 7.72 5.28427 8.68625C5.28163 8.68625 5.28163 8.68625 5.28163 8.68875C7.54521 9.97875 12.5058 9.7 16.4198 8.0475C20.211 6.4475 21.6103 4.15875 19.7392 2.79875C18.0967 2.5075 16.1384 2.47375 14.0664 2.73625L13.851 2.4L14.0294 1.8425C15.2477 1.73875 16.4053 1.76375 17.4043 1.925C17.6461 1.96375 17.9646 2.03 18.2024 2.0775C18.6623 2.18375 18.912 2.2475 19.212 2.33875C19.5185 2.425 19.7802 2.51125 20.2361 2.67125C20.6827 2.8375 20.8756 2.9125 21.2337 3.08125C21.6348 3.25433 22.0244 3.4501 22.4005 3.6675C25.3817 5.44125 23.5277 8.6775 18.2672 10.895C13.0211 13.105 6.33611 13.4525 3.34047 11.7C3.33915 11.6975 3.33518 11.695 3.32725 11.6925H3.33254C1.69663 10.7125 1.52484 9.29 2.59123 7.8325V7.8325ZM16.2401 20.2325L16.1978 18.24L14.7007 16.665C9.75461 17.725 4.89313 17.4975 2.18952 15.9913C2.18027 15.9813 2.1578 15.9713 2.14855 15.9613C0.618354 15.07 0.24043 13.92 0.355393 12.67C-0.00271022 14.4987 -0.0317813 15.1587 0.0197538 16.7237C0.0831817 17.7037 0.681782 18.6075 1.88559 19.32L1.89484 19.33C4.77685 21.025 10.7814 21.3925 16.2401 20.2325ZM22.4838 22.5137C15.5028 25.1625 6.76557 25.3188 2.97047 22.8675C3.38032 23.815 3.93798 24.6989 4.62488 25.49C8.10813 27.74 16.1278 27.5963 22.5327 25.165C26.2815 23.7438 28.6469 21.8525 29.2679 20.08L29.4424 19.5463C29.856 18.1938 29.9339 17.0675 30 16.065C29.9247 18.2413 27.2145 20.7162 22.4838 22.5137V22.5137ZM7.07346 27.615C7.29282 27.8125 7.9826 28.6138 11.4777 29.4988C12.4225 29.6963 14.8011 30.33 19.1948 29.4088L19.2212 29.03L18.8737 28.515C14.7971 29.4275 10.2686 29.1225 7.07346 27.615V27.615ZM17.1611 11.8537L20.873 14.515C20.873 14.515 21.6672 15.0562 20.9179 15.4362C20.1713 15.8125 18.2539 16.7338 18.2539 16.7338L16.3604 16.065L15.4103 16.465L17.0858 17.8412L17.099 19.9825L18.0835 19.5687L18.7363 17.76C18.7363 17.76 20.7409 17.03 21.5363 16.755C22.3358 16.4863 22.2288 17.4063 22.2288 17.4063L21.835 21.795L23.1432 21.245L25.2971 15.3237C25.2971 15.3237 26.4388 14.7988 27.2422 14.3375C28.0443 13.8763 28.3192 13.1113 28.3192 13.1113C28.3192 13.1113 27.5369 12.7925 26.6357 13.0488C25.7345 13.3025 24.5597 13.755 24.5597 13.755L18.4654 11.3063L17.1611 11.8537V11.8537ZM9.30797 3.43375L11.8279 5.3325L12.5164 5.235L11.1447 3.53125C11.1447 3.53125 10.8461 3.17875 11.2478 3.095C11.6522 3.01 12.6749 2.8125 12.6749 2.8125L13.444 3.39375L13.962 3.32125L13.3753 2.43875L13.6845 1.46L13.1837 1.52875L12.5904 2.27375C12.5904 2.27375 11.5491 2.36625 11.1395 2.39875C10.7272 2.42875 10.9042 2.01 10.9042 2.01L11.6944 0L11.002 0.09625L9.17848 2.6075C9.17848 2.6075 8.57063 2.7125 8.13059 2.83125C7.68924 2.94875 7.45667 3.27125 7.45667 3.27125C7.45667 3.27125 7.78042 3.51875 8.23631 3.51C8.69616 3.50125 9.30797 3.43375 9.30797 3.43375V3.43375ZM21.7623 27.8312L20.1317 27.025L19.7564 27.1487L20.7224 27.9662C20.7224 27.9662 20.9285 28.1325 20.7118 28.2212C20.4951 28.3087 19.9427 28.5238 19.9427 28.5238L19.4868 28.3313L19.2159 28.4238L19.5952 28.8063L19.5582 29.365L19.841 29.2725L20.0524 28.8188C20.0524 28.8188 20.6259 28.6575 20.8545 28.6C21.0818 28.5412 21.0302 28.7937 21.0302 28.7937L20.8148 30L21.1915 29.8762L21.9301 28.2812C21.9301 28.2812 22.2565 28.16 22.4904 28.0487C22.7243 27.9375 22.8168 27.7325 22.8168 27.7325C22.8168 27.7325 22.6093 27.625 22.353 27.6787C22.0953 27.73 21.7623 27.8312 21.7623 27.8312Z" fill="white"/>
    </symbol>
    <symbol viewBox="0 0 31.249334 31.251999" id="src-6">
        <path fill-rule="evenodd" clip-rule="evenodd" d="M9.468.495c1.645-.076 2.17-.093 6.359-.093 4.19 0 4.714.019 6.358.093 1.643.074 2.765.336 3.747.716a7.59 7.59 0 0 1 2.731 1.781c.785.77 1.391 1.701 1.778 2.73.382.982.642 2.104.718 3.744.076 1.648.093 2.173.093 6.361 0 4.19-.018 4.714-.093 6.36-.074 1.64-.336 2.762-.718 3.743a7.567 7.567 0 0 1-1.778 2.733 7.564 7.564 0 0 1-2.731 1.778c-.982.382-2.104.643-3.744.718-1.647.076-2.171.093-6.361.093-4.19 0-4.714-.018-6.36-.093-1.64-.074-2.762-.336-3.743-.718a7.567 7.567 0 0 1-2.733-1.778 7.56 7.56 0 0 1-1.78-2.731c-.38-.982-.64-2.104-.716-3.744-.076-1.648-.093-2.172-.093-6.36 0-4.19.018-4.715.093-6.359.074-1.643.336-2.765.716-3.747a7.567 7.567 0 0 1 1.781-2.731 7.561 7.561 0 0 1 2.73-1.78c.982-.38 2.104-.64 3.744-.716h.002zM22.06 3.27c-1.627-.074-2.115-.09-6.233-.09-4.118 0-4.606.016-6.233.09-1.505.07-2.32.32-2.865.532a4.79 4.79 0 0 0-1.774 1.152A4.784 4.784 0 0 0 3.803 6.73c-.212.544-.463 1.36-.532 2.865-.074 1.627-.09 2.115-.09 6.233 0 4.118.016 4.606.09 6.233.069 1.505.32 2.32.532 2.865.247.669.64 1.276 1.152 1.774A4.787 4.787 0 0 0 6.73 27.85c.544.212 1.36.463 2.865.532 1.627.074 2.113.09 6.233.09 4.12 0 4.606-.016 6.233-.09 1.505-.069 2.32-.32 2.865-.532a4.79 4.79 0 0 0 1.774-1.152 4.789 4.789 0 0 0 1.152-1.774c.212-.544.463-1.36.532-2.865.074-1.627.09-2.114.09-6.233 0-4.118-.016-4.606-.09-6.233-.069-1.505-.32-2.32-.532-2.865A4.79 4.79 0 0 0 26.7 4.955a4.786 4.786 0 0 0-1.774-1.152c-.544-.212-1.36-.463-2.865-.532zm-8.203 17.311a5.145 5.145 0 1 0 3.704-9.6 5.146 5.146 0 0 0-3.704 9.6zM10.22 10.221a7.928 7.928 0 1 1 11.212 11.212A7.928 7.928 0 0 1 10.22 10.22zm15.293-1.142a1.875 1.875 0 1 0-2.574-2.727 1.875 1.875 0 0 0 2.574 2.727z"/>
    </symbol>
    <symbol viewBox="0 0 207.46132 31.800001" id="src-7">
        <path d="M2.59123 8.8325C2.83304 8.525 3.15151 8.10875 3.40654 7.81125C4.17032 6.99125 4.26942 6.88375 4.96449 6.2775C5.17063 6.1175 5.41509 5.925 5.65426 5.74375C3.89018 7.15625 3.66554 8.72 5.28427 9.68625C5.28163 9.68625 5.28163 9.68625 5.28163 9.68875C7.54521 10.9788 12.5058 10.7 16.4198 9.0475C20.211 7.4475 21.6103 5.15875 19.7392 3.79875C18.0967 3.5075 16.1384 3.47375 14.0664 3.73625L13.851 3.4L14.0294 2.8425C15.2477 2.73875 16.4053 2.76375 17.4043 2.925C17.6461 2.96375 17.9646 3.03 18.2024 3.0775C18.6623 3.18375 18.912 3.2475 19.212 3.33875C19.5185 3.425 19.7802 3.51125 20.2361 3.67125C20.6827 3.8375 20.8756 3.9125 21.2337 4.08125C21.6348 4.25433 22.0244 4.4501 22.4005 4.6675C25.3817 6.44125 23.5277 9.6775 18.2672 11.895C13.0211 14.105 6.33611 14.4525 3.34047 12.7C3.33915 12.6975 3.33518 12.695 3.32725 12.6925H3.33254C1.69663 11.7125 1.52484 10.29 2.59123 8.8325V8.8325ZM16.2401 21.2325L16.1978 19.24L14.7007 17.665C9.75461 18.725 4.89313 18.4975 2.18952 16.9913C2.18027 16.9813 2.1578 16.9713 2.14855 16.9613C0.618354 16.07 0.24043 14.92 0.355393 13.67C-0.00271022 15.4987 -0.0317813 16.1587 0.0197538 17.7237C0.0831817 18.7037 0.681782 19.6075 1.88559 20.32L1.89484 20.33C4.77685 22.025 10.7814 22.3925 16.2401 21.2325ZM22.4838 23.5137C15.5028 26.1625 6.76557 26.3188 2.97047 23.8675C3.38032 24.815 3.93798 25.6989 4.62488 26.49C8.10813 28.74 16.1278 28.5963 22.5327 26.165C26.2815 24.7438 28.6469 22.8525 29.2679 21.08L29.4424 20.5463C29.856 19.1938 29.9339 18.0675 30 17.065C29.9247 19.2413 27.2145 21.7162 22.4838 23.5137V23.5137ZM7.07346 28.615C7.29282 28.8125 7.9826 29.6138 11.4777 30.4988C12.4225 30.6963 14.8011 31.33 19.1948 30.4088L19.2212 30.03L18.8737 29.515C14.7971 30.4275 10.2686 30.1225 7.07346 28.615V28.615ZM17.1611 12.8537L20.873 15.515C20.873 15.515 21.6672 16.0562 20.9179 16.4362C20.1713 16.8125 18.2539 17.7338 18.2539 17.7338L16.3604 17.065L15.4103 17.465L17.0858 18.8412L17.099 20.9825L18.0835 20.5687L18.7363 18.76C18.7363 18.76 20.7409 18.03 21.5363 17.755C22.3358 17.4863 22.2288 18.4063 22.2288 18.4063L21.835 22.795L23.1432 22.245L25.2971 16.3237C25.2971 16.3237 26.4388 15.7988 27.2422 15.3375C28.0443 14.8763 28.3192 14.1113 28.3192 14.1113C28.3192 14.1113 27.5369 13.7925 26.6357 14.0488C25.7345 14.3025 24.5597 14.755 24.5597 14.755L18.4654 12.3063L17.1611 12.8537V12.8537ZM9.30797 4.43375L11.8279 6.3325L12.5164 6.235L11.1447 4.53125C11.1447 4.53125 10.8461 4.17875 11.2478 4.095C11.6522 4.01 12.6749 3.8125 12.6749 3.8125L13.444 4.39375L13.962 4.32125L13.3753 3.43875L13.6845 2.46L13.1837 2.52875L12.5904 3.27375C12.5904 3.27375 11.5491 3.36625 11.1395 3.39875C10.7272 3.42875 10.9042 3.01 10.9042 3.01L11.6944 1L11.002 1.09625L9.17848 3.6075C9.17848 3.6075 8.57063 3.7125 8.13059 3.83125C7.68924 3.94875 7.45667 4.27125 7.45667 4.27125C7.45667 4.27125 7.78042 4.51875 8.23631 4.51C8.69616 4.50125 9.30797 4.43375 9.30797 4.43375V4.43375ZM21.7623 28.8312L20.1317 28.025L19.7564 28.1487L20.7224 28.9662C20.7224 28.9662 20.9285 29.1325 20.7118 29.2212C20.4951 29.3087 19.9427 29.5238 19.9427 29.5238L19.4868 29.3313L19.2159 29.4238L19.5952 29.8063L19.5582 30.365L19.841 30.2725L20.0524 29.8188C20.0524 29.8188 20.6259 29.6575 20.8545 29.6C21.0818 29.5412 21.0302 29.7937 21.0302 29.7937L20.8148 31L21.1915 30.8762L21.9301 29.2812C21.9301 29.2812 22.2565 29.16 22.4904 29.0487C22.7243 28.9375 22.8168 28.7325 22.8168 28.7325C22.8168 28.7325 22.6093 28.625 22.353 28.6787C22.0953 28.73 21.7623 28.8312 21.7623 28.8312Z" fill="white"/>
        <path d="M46.944 12.28V31H41.696V12.28H36.288L36.8 8.344H52.064L51.552 12.28H46.944ZM58.007 17.24C58.327 16.1093 58.8603 15.2133 59.607 14.552C60.3537 13.8907 61.2177 13.56 62.199 13.56C63.2017 13.56 64.1083 13.7627 64.919 14.168L63.799 18.04C63.1377 17.848 62.5723 17.752 62.103 17.752C61.271 17.752 60.5137 18.0613 59.831 18.68C59.1697 19.2987 58.839 20.2053 58.839 21.4V31H53.943V18.936L53.591 14.2L57.303 13.72L57.879 17.24H58.007ZM73.4905 19.352C73.4905 18.648 73.3412 18.136 73.0425 17.816C72.7438 17.4747 72.1678 17.304 71.3145 17.304C70.4612 17.304 69.0532 17.6133 67.0905 18.232L65.7145 15.224C66.4398 14.8187 67.4425 14.4453 68.7225 14.104C70.0238 13.7413 71.2932 13.56 72.5305 13.56C73.7892 13.56 74.8345 13.7093 75.6665 14.008C76.5198 14.3067 77.1278 14.7547 77.4905 15.352C77.8745 15.928 78.1198 16.504 78.2265 17.08C78.3545 17.656 78.4185 18.3813 78.4185 19.256V25.272C78.4185 26.0613 78.4932 26.7013 78.6425 27.192C78.8132 27.6827 79.1652 28.216 79.6985 28.792L76.9145 31.384C76.4238 31.1493 75.9438 30.7973 75.4745 30.328C75.0265 29.8587 74.6958 29.4213 74.4825 29.016H74.3545C73.1172 30.5947 71.5492 31.384 69.6505 31.384C66.5785 31.384 65.0425 29.7947 65.0425 26.616C65.0425 24.9307 65.5225 23.672 66.4825 22.84C67.4638 22.008 68.8718 21.432 70.7065 21.112L73.4905 20.632V19.352ZM69.6825 26.104C69.6825 27.1493 70.2372 27.672 71.3465 27.672C72.1998 27.672 72.9252 27.3733 73.5225 26.776V23.768C72.1572 23.96 71.1758 24.2267 70.5785 24.568C69.9812 24.888 69.6825 25.4 69.6825 26.104ZM89.7608 13.688L94.2408 14.2L90.0168 31H84.2888L79.8407 14.168L84.5768 13.688L87.1048 26.648H87.2968L89.7608 13.688ZM102.985 13.56C105.118 13.56 106.686 14.1467 107.689 15.32C108.521 16.28 109.033 17.88 109.225 20.12C109.289 21.016 109.321 22.136 109.321 23.48L107.049 23.8H100.457C100.457 25.0587 100.691 26.008 101.161 26.648C101.63 27.2667 102.462 27.576 103.657 27.576C104.873 27.576 106.334 27.2667 108.041 26.648L109.033 29.656C107.006 30.808 104.894 31.384 102.697 31.384C97.7258 31.384 95.2405 28.44 95.2405 22.552C95.2405 19.7787 95.8805 17.592 97.1605 15.992C98.4618 14.3707 100.403 13.56 102.985 13.56ZM104.073 18.104C103.859 17.6133 103.379 17.368 102.633 17.368C101.886 17.368 101.353 17.6453 101.033 18.2C100.713 18.7333 100.531 19.544 100.489 20.632H104.393C104.393 19.416 104.286 18.5733 104.073 18.104ZM116.556 25.144C116.556 26.1893 116.62 26.9573 116.748 27.448C116.898 27.9387 117.25 28.5253 117.804 29.208L114.284 31.8C113.26 30.712 112.556 29.7627 112.172 28.952C111.81 28.12 111.628 26.8827 111.628 25.24V7.384L116.556 6.84V25.144ZM126.894 8.344H135.086C138.009 8.344 140.025 9.03733 141.134 10.424C142.094 11.6613 142.574 13.24 142.574 15.16C142.574 17.144 141.987 18.8827 140.814 20.376C140.195 21.1867 139.257 21.8373 137.998 22.328C136.761 22.7973 135.267 23.032 133.518 23.032H132.142V31H126.894V8.344ZM132.142 11.928V19.256H133.87C134.958 19.256 135.737 18.968 136.206 18.392C136.697 17.816 136.942 16.9093 136.942 15.672C136.942 14.4133 136.739 13.4747 136.334 12.856C135.929 12.2373 135.107 11.928 133.87 11.928H132.142ZM152.177 13.56C153.351 13.56 154.375 13.7413 155.249 14.104C156.124 14.4667 156.807 14.936 157.297 15.512C157.809 16.0667 158.215 16.76 158.513 17.592C159.004 18.9573 159.249 20.632 159.249 22.616C159.249 25.6667 158.396 27.9813 156.689 29.56C155.388 30.776 153.596 31.384 151.313 31.384C150.14 31.384 149.116 31.2027 148.241 30.84C147.367 30.4773 146.673 30.0187 146.161 29.464C145.671 28.888 145.265 28.184 144.945 27.352C144.455 26.0293 144.209 24.3547 144.209 22.328C144.209 20.4507 144.583 18.7973 145.329 17.368C146.631 14.8293 148.913 13.56 152.177 13.56ZM154.033 22.552C154.033 20.6107 153.884 19.2667 153.585 18.52C153.287 17.752 152.647 17.368 151.665 17.368C150.705 17.368 150.087 17.7307 149.809 18.456C149.553 19.1813 149.425 20.504 149.425 22.424C149.425 24.344 149.575 25.688 149.873 26.456C150.172 27.2027 150.812 27.576 151.793 27.576C152.775 27.576 153.393 27.224 153.649 26.52C153.905 25.7947 154.033 24.472 154.033 22.552ZM165.82 17.24C166.14 16.1093 166.673 15.2133 167.42 14.552C168.166 13.8907 169.03 13.56 170.012 13.56C171.014 13.56 171.921 13.7627 172.732 14.168L171.612 18.04C170.95 17.848 170.385 17.752 169.916 17.752C169.084 17.752 168.326 18.0613 167.644 18.68C166.982 19.2987 166.652 20.2053 166.652 21.4V31H161.756V18.936L161.404 14.2L165.116 13.72L165.692 17.24H165.82ZM179.639 13.816H183.959L183.383 17.368H179.639V24.696C179.639 25.784 179.788 26.5413 180.087 26.968C180.386 27.3947 180.898 27.608 181.623 27.608C181.922 27.608 182.53 27.5013 183.447 27.288L184.311 30.136C183.906 30.456 183.244 30.744 182.327 31C181.431 31.256 180.61 31.384 179.863 31.384C177.751 31.384 176.364 30.8507 175.703 29.784C175.063 28.696 174.743 26.9253 174.743 24.472V17.368H172.279L172.727 14.168L174.839 13.88L175.031 10.68L179.639 9.304V13.816ZM193.334 19.352C193.334 18.648 193.185 18.136 192.886 17.816C192.588 17.4747 192.012 17.304 191.158 17.304C190.305 17.304 188.897 17.6133 186.934 18.232L185.558 15.224C186.284 14.8187 187.286 14.4453 188.566 14.104C189.868 13.7413 191.137 13.56 192.374 13.56C193.633 13.56 194.678 13.7093 195.51 14.008C196.364 14.3067 196.972 14.7547 197.334 15.352C197.718 15.928 197.964 16.504 198.07 17.08C198.198 17.656 198.262 18.3813 198.262 19.256V25.272C198.262 26.0613 198.337 26.7013 198.486 27.192C198.657 27.6827 199.009 28.216 199.542 28.792L196.758 31.384C196.268 31.1493 195.788 30.7973 195.318 30.328C194.87 29.8587 194.54 29.4213 194.326 29.016H194.198C192.961 30.5947 191.393 31.384 189.494 31.384C186.422 31.384 184.886 29.7947 184.886 26.616C184.886 24.9307 185.366 23.672 186.326 22.84C187.308 22.008 188.716 21.432 190.55 21.112L193.334 20.632V19.352ZM189.526 26.104C189.526 27.1493 190.081 27.672 191.19 27.672C192.044 27.672 192.769 27.3733 193.366 26.776V23.768C192.001 23.96 191.02 24.2267 190.422 24.568C189.825 24.888 189.526 25.4 189.526 26.104ZM206.213 25.144C206.213 26.1893 206.277 26.9573 206.405 27.448C206.554 27.9387 206.906 28.5253 207.461 29.208L203.941 31.8C202.917 30.712 202.213 29.7627 201.829 28.952C201.466 28.12 201.285 26.8827 201.285 25.24V7.384L206.213 6.84V25.144Z" fill="white"/>
    </symbol>
    <symbol viewBox="0 0 50 45" id="src-8">
        <path d="M10.4167 41.7548C8.4828 41.7548 6.62813 40.957 5.26068 39.537C3.89323 38.1169 3.125 36.1909 3.125 34.1827C3.125 32.1744 3.89323 30.2484 5.26068 28.8284C6.62813 27.4084 8.4828 26.6106 10.4167 26.6106C12.3505 26.6106 14.2052 27.4084 15.5727 28.8284C16.9401 30.2484 17.7083 32.1744 17.7083 34.1827C17.7083 36.1909 16.9401 38.1169 15.5727 39.537C14.2052 40.957 12.3505 41.7548 10.4167 41.7548ZM10.4167 23.3654C7.65399 23.3654 5.00447 24.5051 3.05097 26.5337C1.09747 28.5623 0 31.3138 0 34.1827C0 37.0516 1.09747 39.803 3.05097 41.8317C5.00447 43.8603 7.65399 45 10.4167 45C13.1793 45 15.8289 43.8603 17.7824 41.8317C19.7359 39.803 20.8333 37.0516 20.8333 34.1827C20.8333 31.3138 19.7359 28.5623 17.7824 26.5337C15.8289 24.5051 13.1793 23.3654 10.4167 23.3654ZM30.8333 19.0385H39.5833V15.1442H32.9167L28.875 8.06971C28.2708 6.98798 27.0833 6.27404 25.8333 6.27404C24.8542 6.27404 23.9583 6.6851 23.3333 7.35577L15.625 15.3389C14.9792 16.0096 14.5833 16.875 14.5833 17.9567C14.5833 19.3197 15.2708 20.4663 16.3542 21.137L23.3333 25.5288V36.3462H27.0833V22.2837L22.3958 18.7139L27.2292 13.6298L30.8333 19.0385ZM39.5833 41.7548C37.6495 41.7548 35.7948 40.957 34.4273 39.537C33.0599 38.1169 32.2917 36.1909 32.2917 34.1827C32.2917 32.1744 33.0599 30.2484 34.4273 28.8284C35.7948 27.4084 37.6495 26.6106 39.5833 26.6106C41.5172 26.6106 43.3719 27.4084 44.7393 28.8284C46.1068 30.2484 46.875 32.1744 46.875 34.1827C46.875 36.1909 46.1068 38.1169 44.7393 39.537C43.3719 40.957 41.5172 41.7548 39.5833 41.7548ZM39.5833 23.3654C36.8207 23.3654 34.1711 24.5051 32.2176 26.5337C30.2641 28.5623 29.1667 31.3138 29.1667 34.1827C29.1667 37.0516 30.2641 39.803 32.2176 41.8317C34.1711 43.8603 36.8207 45 39.5833 45C40.9513 45 42.3058 44.7202 43.5696 44.1766C44.8334 43.633 45.9818 42.8362 46.949 41.8317C47.9163 40.8272 48.6836 39.6347 49.2071 38.3223C49.7306 37.0099 50 35.6032 50 34.1827C50 32.7621 49.7306 31.3555 49.2071 30.0431C48.6836 28.7307 47.9163 27.5382 46.949 26.5337C45.9818 25.5292 44.8334 24.7324 43.5696 24.1888C42.3058 23.6452 40.9513 23.3654 39.5833 23.3654ZM33.3333 7.78846C35.4167 7.78846 37.0833 6.05769 37.0833 3.89423C37.0833 1.73077 35.4167 0 33.3333 0C31.25 0 29.5833 1.73077 29.5833 3.89423C29.5833 6.05769 31.25 7.78846 33.3333 7.78846Z" fill="white"/>
    </symbol>
    <symbol viewBox="0 0 552.85065 198.68" id="src-9">
        <title>rs_school</title><g data-name="Layer 2"><g data-name="Layer 1">
        <path d="M275.36 61.37l26.29-1.65q.86 6.41 3.48 9.76 4.28 5.43 12.2 5.43 5.91 0 9.12-2.77a8.34 8.34 0 0 0 3.2-6.44 8.18 8.18 0 0 0-3-6.22q-3-2.74-14.15-5.19-18.18-4.08-25.93-10.86a21.84 21.84 0 0 1-7.81-17.26 23.44 23.44 0 0 1 4-13 26.47 26.47 0 0 1 12-9.64q8-3.51 22-3.51 17.14 0 26.14 6.38t10.71 20.28l-26.05 1.52q-1-6-4.36-8.78t-9.2-2.77c-3.21 0-5.63.69-7.25 2.05a6.25 6.25 0 0 0-2.44 5 5 5 0 0 0 2 3.84q1.95 1.77 9.27 3.3 18.12 3.9 26 7.9t11.4 9.91a25.12 25.12 0 0 1 3.57 13.24 28.37 28.37 0 0 1-4.75 15.86 29.83 29.83 0 0 1-13.3 11q-8.55 3.75-21.54 3.75-22.81 0-31.6-8.78t-10-22.35zM6.27 91V1.53h46.06q12.81 0 19.58 2.19a20.93 20.93 0 0 1 10.92 8.14A24.75 24.75 0 0 1 87 26.35a24.8 24.8 0 0 1-3.2 12.84A24.91 24.91 0 0 1 75.07 48a33.63 33.63 0 0 1-9.7 3.54 27.79 27.79 0 0 1 7.19 3.29A27.79 27.79 0 0 1 77 59.49 35.16 35.16 0 0 1 80.85 65l13.38 26H63L48.24 63.63q-2.81-5.31-5-6.9a11.63 11.63 0 0 0-6.78-2.07H34V91zM34 37.76h11.68A41 41 0 0 0 53 36.54a7.3 7.3 0 0 0 4.48-2.81 8.24 8.24 0 0 0 1.74-5.18 8.23 8.23 0 0 0-2.75-6.65q-2.74-2.32-10.31-2.32H34zM0 167.56l26.29-1.64q.86 6.41 3.48 9.76Q34 181.11 42 181.11q5.91 0 9.12-2.78a8.34 8.34 0 0 0 3.2-6.44 8.2 8.2 0 0 0-3-6.22q-3-2.74-14.15-5.18-18.18-4.1-25.93-10.86a21.87 21.87 0 0 1-7.81-17.27 23.49 23.49 0 0 1 4-13 26.47 26.47 0 0 1 12-9.64q8-3.51 22-3.51 17.14 0 26.14 6.38t10.71 20.28l-26 1.53q-1-6-4.36-8.79t-9.19-2.74q-4.81 0-7.25 2a6.25 6.25 0 0 0-2.44 5 5 5 0 0 0 2 3.85q1.95 1.77 9.27 3.29 18.12 3.9 26 7.9t11.4 9.91a25.15 25.15 0 0 1 3.57 13.24 28.35 28.35 0 0 1-4.75 15.86 29.83 29.83 0 0 1-13.3 11q-8.55 3.75-21.54 3.75-22.81 0-31.6-8.78T0 167.56zm163-7.01l24.22 7.32a44.72 44.72 0 0 1-7.69 17 33.46 33.46 0 0 1-13 10.31q-7.78 3.47-19.8 3.47-14.58 0-23.82-4.23t-16-14.91q-6.72-10.67-6.71-27.31 0-22.18 11.8-34.11t33.4-11.92q16.91 0 26.57 6.84t14.36 21l-24.4 5.43a21 21 0 0 0-2.68-6 16 16 0 0 0-5.67-4.88 16.31 16.31 0 0 0-7.51-1.71q-9.39 0-14.39 7.56-3.8 5.61-3.79 17.61 0 14.86 4.52 20.38t12.69 5.51q7.92 0 12-4.45t5.9-12.91zm45.51-52.83h27.63V139h30.2v-31.28h27.75v89.43h-27.75V161h-30.2v36.18h-27.63zm102.78 44.77q0-21.88 12.2-34.1t34-12.2q22.32 0 34.4 12T404 151.76q0 15.69-5.28 25.72a37.54 37.54 0 0 1-15.25 15.61q-10 5.58-24.86 5.58-15.12 0-25-4.82a37.59 37.59 0 0 1-16.07-15.25q-6.26-10.42-6.25-26.11zm27.63.13q0 13.55 5 19.46t13.7 5.91q8.91 0 13.79-5.79t4.88-20.8q0-12.63-5.1-18.46t-13.82-5.82A16.78 16.78 0 0 0 344 133q-5.07 6-5.08 19.62z"/>
        <path d="M392.28 152.49q0-21.88 12.2-34.1t34-12.2q22.34 0 34.41 12t12.07 33.58q0 15.69-5.27 25.72a37.6 37.6 0 0 1-15.25 15.61q-10 5.58-24.86 5.58-15.13 0-25-4.82a37.67 37.67 0 0 1-16.08-15.25q-6.22-10.43-6.22-26.12zm27.64.13q0 13.55 5 19.46t13.72 5.92q8.91 0 13.79-5.79t4.88-20.8q0-12.63-5.09-18.46t-13.82-5.82A16.77 16.77 0 0 0 425 133q-5.09 6-5.08 19.62z"/>
        <path d="M482.08 107.72h27.64v67.41h43.13v22h-70.77z"/></g></g>
    </symbol>
    <symbol viewBox="0 0 552.85065 198.68" id="src-10"><g data-name="Layer 2"><g data-name="Layer 1">
        <path d="m275.36 61.37 26.29-1.65q.86 6.41 3.48 9.76 4.28 5.43 12.2 5.43 5.91 0 9.12-2.77a8.34 8.34 0 0 0 3.2-6.44 8.18 8.18 0 0 0-3-6.22q-3-2.74-14.15-5.19-18.18-4.08-25.93-10.86a21.84 21.84 0 0 1-7.81-17.26 23.44 23.44 0 0 1 4-13 26.47 26.47 0 0 1 12-9.64q8-3.51 22-3.51 17.14 0 26.14 6.38t10.71 20.28l-26.05 1.52q-1-6-4.36-8.78t-9.2-2.77c-3.21 0-5.63.69-7.25 2.05a6.25 6.25 0 0 0-2.44 5 5 5 0 0 0 2 3.84q1.95 1.77 9.27 3.3 18.12 3.9 26 7.9t11.4 9.91a25.12 25.12 0 0 1 3.57 13.24 28.37 28.37 0 0 1-4.75 15.86 29.83 29.83 0 0 1-13.3 11q-8.55 3.75-21.54 3.75-22.81 0-31.6-8.78t-10-22.35zM6.27 91V1.53h46.06q12.81 0 19.58 2.19a20.93 20.93 0 0 1 10.92 8.14A24.75 24.75 0 0 1 87 26.35a24.8 24.8 0 0 1-3.2 12.84A24.91 24.91 0 0 1 75.07 48a33.63 33.63 0 0 1-9.7 3.54 27.79 27.79 0 0 1 7.19 3.29A27.79 27.79 0 0 1 77 59.49 35.16 35.16 0 0 1 80.85 65l13.38 26H63L48.24 63.63q-2.81-5.31-5-6.9a11.63 11.63 0 0 0-6.78-2.07H34V91zM34 37.76h11.68A41 41 0 0 0 53 36.54a7.3 7.3 0 0 0 4.48-2.81 8.24 8.24 0 0 0 1.74-5.18 8.23 8.23 0 0 0-2.75-6.65q-2.74-2.32-10.31-2.32H34zM0 167.56l26.29-1.64q.86 6.41 3.48 9.76Q34 181.11 42 181.11q5.91 0 9.12-2.78a8.34 8.34 0 0 0 3.2-6.44 8.2 8.2 0 0 0-3-6.22q-3-2.74-14.15-5.18-18.18-4.1-25.93-10.86a21.87 21.87 0 0 1-7.81-17.27 23.49 23.49 0 0 1 4-13 26.47 26.47 0 0 1 12-9.64q8-3.51 22-3.51 17.14 0 26.14 6.38t10.71 20.28l-26 1.53q-1-6-4.36-8.79t-9.19-2.74q-4.81 0-7.25 2a6.25 6.25 0 0 0-2.44 5 5 5 0 0 0 2 3.85q1.95 1.77 9.27 3.29 18.12 3.9 26 7.9t11.4 9.91a25.15 25.15 0 0 1 3.57 13.24 28.35 28.35 0 0 1-4.75 15.86 29.83 29.83 0 0 1-13.3 11q-8.55 3.75-21.54 3.75-22.81 0-31.6-8.78T0 167.56zm163-7.01 24.22 7.32a44.72 44.72 0 0 1-7.69 17 33.46 33.46 0 0 1-13 10.31q-7.78 3.47-19.8 3.47-14.58 0-23.82-4.23t-16-14.91q-6.72-10.67-6.71-27.31 0-22.18 11.8-34.11t33.4-11.92q16.91 0 26.57 6.84t14.36 21l-24.4 5.43a21 21 0 0 0-2.68-6 16 16 0 0 0-5.67-4.88 16.31 16.31 0 0 0-7.51-1.71q-9.39 0-14.39 7.56-3.8 5.61-3.79 17.61 0 14.86 4.52 20.38t12.69 5.51q7.92 0 12-4.45t5.9-12.91zm45.51-52.83h27.63V139h30.2v-31.28h27.75v89.43h-27.75V161h-30.2v36.18h-27.63zm102.78 44.77q0-21.88 12.2-34.1t34-12.2q22.32 0 34.4 12T404 151.76q0 15.69-5.28 25.72a37.54 37.54 0 0 1-15.25 15.61q-10 5.58-24.86 5.58-15.12 0-25-4.82a37.59 37.59 0 0 1-16.07-15.25q-6.26-10.42-6.25-26.11zm27.63.13q0 13.55 5 19.46t13.7 5.91q8.91 0 13.79-5.79t4.88-20.8q0-12.63-5.1-18.46t-13.82-5.82A16.78 16.78 0 0 0 344 133q-5.07 6-5.08 19.62z"/>
        <path d="M392.28 152.49q0-21.88 12.2-34.1t34-12.2q22.34 0 34.41 12t12.07 33.58q0 15.69-5.27 25.72a37.6 37.6 0 0 1-15.25 15.61q-10 5.58-24.86 5.58-15.13 0-25-4.82a37.67 37.67 0 0 1-16.08-15.25q-6.22-10.43-6.22-26.12zm27.64.13q0 13.55 5 19.46t13.72 5.92q8.91 0 13.79-5.79t4.88-20.8q0-12.63-5.09-18.46t-13.82-5.82A16.77 16.77 0 0 0 425 133q-5.09 6-5.08 19.62z"/>
        <path d="M482.08 107.72h27.64v67.41h43.13v22h-70.77z"/></g></g>
    </symbol>
    <symbol viewBox="0 0 32.461334 26.736" id="src-11">
        <path d="M32.4612 3.92278C31.2903 4.44162 30.0325 4.79218 28.7102 4.95063C30.0746 4.13423 31.0953 2.84932 31.582 1.33564C30.3001 2.09704 28.8972 2.63299 27.4341 2.92018C26.4503 1.86971 25.1472 1.17344 23.7271 0.939468C22.3069 0.7055 20.8493 0.946924 19.5805 1.62626C18.3116 2.30559 17.3026 3.38483 16.71 4.69641C16.1173 6.00799 15.9743 7.47853 16.3031 8.87973C13.7057 8.74931 11.1647 8.07421 8.84514 6.89822C6.52554 5.72223 4.47913 4.07165 2.83872 2.05359C2.27782 3.02114 1.9553 4.14294 1.9553 5.33765C1.95468 6.41317 2.21953 7.47221 2.72637 8.42082C3.23321 9.36942 3.96635 10.1783 4.86076 10.7756C3.82348 10.7426 2.80909 10.4623 1.90202 9.95806V10.0422C1.90191 11.5506 2.4237 13.0127 3.37884 14.1802C4.33398 15.3478 5.66365 16.1489 7.14222 16.4477C6.17997 16.7081 5.17113 16.7464 4.19189 16.5598C4.60905 17.8578 5.42165 18.9928 6.51593 19.8059C7.6102 20.6191 8.93137 21.0697 10.2945 21.0947C7.98053 22.9112 5.12282 23.8965 2.18106 23.8922C1.65996 23.8923 1.1393 23.8619 0.621765 23.801C3.60782 25.721 7.0838 26.7399 10.6338 26.7359C22.6511 26.7359 29.2206 16.7828 29.2206 8.15056C29.2206 7.87011 29.2136 7.58686 29.201 7.30641C30.4788 6.38229 31.5819 5.23795 32.4584 3.92699L32.4612 3.92278V3.92278Z"/>
    </symbol>
    <symbol viewBox="0 0 31.504002 28.045334" id="src-12">
        <path d="M25.894 5.609H9.067a5.609 5.609 0 0 0-5.609 5.609v11.218a5.609 5.609 0 0 0 5.61 5.609h16.826a5.609 5.609 0 0 0 5.61-5.61V11.219a5.609 5.609 0 0 0-5.61-5.61z" stroke="#F8F8F8" stroke-width="4.167" stroke-linecap="round" stroke-linejoin="round"/><path d="m21.688 16.827-7.012-4.207v8.414l7.012-4.207z" stroke="#F8F8F8" stroke-width="4.167" stroke-linecap="round" stroke-linejoin="round"/>
    </symbol>
</svg>
